<svg id="Layer_1" height="40" width="133" data-name="Layer 1" xmlns="http://www.w3.org/2000/svg" viewBox="0 0 191.44 67.47"><defs><style>.cls-1{fill:#fff;}</style></defs><path class="cls-1" d="M75.13,55.93l-1.27,1.79L43.3,104l29.55,0v1.79H30.28L62,57.68H32.93V55.93l30.35-.13Z" transform="translate(-30.28 -38.26)"/><path class="cls-1" d="M110.42,57.84a25.28,25.28,0,0,1,13.31,13.31,25.51,25.51,0,0,1,0,19.37,25.27,25.27,0,0,1-5.37,7.93,24.55,24.55,0,0,1-7.94,5.33,24.91,24.91,0,0,1-19.37,0,24.51,24.51,0,0,1-7.93-5.33,25.16,25.16,0,0,1-5.33-7.93,24.91,24.91,0,0,1,0-19.37,24.65,24.65,0,0,1,22.95-15.22A24.77,24.77,0,0,1,110.42,57.84Zm-17.13,3A21.64,21.64,0,0,0,88,69.19a34.12,34.12,0,0,0-1.91,11.64,36.39,36.39,0,0,0,1.79,11.64A20,20,0,0,0,93,100.81a11.5,11.5,0,0,0,7.9,3.14,11.09,11.09,0,0,0,7.77-3.14,19.78,19.78,0,0,0,5-8.34,37.57,37.57,0,0,0,1.71-11.64,32.94,32.94,0,0,0-2-11.64,21.64,21.64,0,0,0-5.25-8.38,10.69,10.69,0,0,0-7.44-3.13A10.55,10.55,0,0,0,93.29,60.81Z" transform="translate(-30.28 -38.26)"/><path class="cls-1" d="M143,39.85a4.89,4.89,0,0,1,1.51,3.62A5,5,0,0,1,143,47.14a5.17,5.17,0,0,1-7.28,0,5,5,0,0,1-1.51-3.67,4.89,4.89,0,0,1,1.51-3.62,5.17,5.17,0,0,1,7.28,0Zm1.51,16.08v49.81H134.2V55.93Z" transform="translate(-30.28 -38.26)"/><path class="cls-1" d="M163.35,38.26v67.48H153.06V38.26Z" transform="translate(-30.28 -38.26)"/><path class="cls-1" d="M206.5,57.84a25.28,25.28,0,0,1,13.31,13.31,25.51,25.51,0,0,1,0,19.37,25.61,25.61,0,0,1-5.37,7.93,24.55,24.55,0,0,1-7.94,5.33,24.91,24.91,0,0,1-19.37,0,24.55,24.55,0,0,1-7.94-5.33,25.5,25.5,0,0,1-5.33-7.93,25,25,0,0,1,0-19.37,25,25,0,0,1,13.27-13.31,25.51,25.51,0,0,1,19.37,0Zm-17.13,3a21.64,21.64,0,0,0-5.25,8.38,34.12,34.12,0,0,0-1.91,11.64A36.39,36.39,0,0,0,184,92.47a19.93,19.93,0,0,0,5.08,8.34A11.48,11.48,0,0,0,197,104a11.11,11.11,0,0,0,7.77-3.14,19.67,19.67,0,0,0,5-8.34,37.57,37.57,0,0,0,1.71-11.64,33.17,33.17,0,0,0-1.95-11.64,21.64,21.64,0,0,0-5.25-8.38,10.71,10.71,0,0,0-7.45-3.13A10.55,10.55,0,0,0,189.37,60.81Z" transform="translate(-30.28 -38.26)"/></svg>